<svg xmlns="http://www.w3.org/2000/svg" xmlns:xlink="http://www.w3.org/1999/xlink" version="1.1" width="1000" height="1000" viewBox="0 0 1000 1000" xml:space="preserve">
<desc>Created with Fabric.js 3.5.0</desc>
<defs>
</defs>
<rect x="0" y="0" width="100%" height="100%" fill="rgba(255,255,255,0)"/>
<g transform="matrix(1 0 0 1 425.9689 548.8618)" id="20788">
<g style="">
		<g transform="matrix(1 0 0 1 0 0)" style="" id="345571">
		
<path xml:space="preserve" font-family="Roboto" font-size="872" font-style="normal" font-weight="bold" style="stroke: none; stroke-width: 1; stroke-dasharray: none; stroke-linecap: butt; stroke-dashoffset: 0; stroke-linejoin: miter; stroke-miterlimit: 4; is-custom-font: none; font-file-url: none; fill: rgb(40,38,66); fill-rule: nonzero; opacity: 1; white-space: pre;" d="M154.98 273.93L111.98 146.20L-111.98 146.20L-154.56 273.93L-290.38 273.93L-59.61-346.01L58.76-346.01L290.81 273.93L154.98 273.93ZM-0.43-189.32L-77.49 42.73L77.49 42.73L-0.43-189.32Z"/></g>
		<g transform="matrix(0.6633 0 0 0.6633 352.8367 219.0495)" id="502441">
<path style="stroke: none; stroke-width: 0; stroke-dasharray: none; stroke-linecap: butt; stroke-dashoffset: 0; stroke-linejoin: miter; stroke-miterlimit: 4; is-custom-font: none; font-file-url: none; fill: none; fill-rule: nonzero; opacity: 1;" vector-effect="non-scaling-stroke" transform=" translate(-79, -78.9999)" d="M 154.685 2.50049 H 154.711 L 154.738 2.49994 C 155.15 2.49126 155.491 2.81853 155.5 3.2304 L 155.5 3.23069 C 155.5 3.24095 155.5 3.25176 155.5 3.26283 L 155.499 3.28886 V 3.3149 V 154.686 C 155.499 155.135 155.135 155.5 154.685 155.5 H 3.31409 C 2.86449 155.5 2.5 155.135 2.5 154.686 V 3.3149 C 2.5 2.86483 2.86465 2.50049 3.31409 2.50049 H 154.685 Z" stroke-linecap="round"/>
</g>
		<g transform="matrix(20.024 0 0 20.024 397.185 210.5286)" id=".">
<path style="stroke: none; stroke-width: 1; stroke-dasharray: none; stroke-linecap: butt; stroke-dashoffset: 0; stroke-linejoin: miter; stroke-miterlimit: 4; is-custom-font: none; font-file-url: none; fill: rgb(255,76,96); fill-rule: nonzero; opacity: 1;" transform=" translate(-28.026, -21.906)" d="M 30.42 25.2 C 30.684 25.2 30.9 25.11 31.068 24.93 C 31.236 24.75 31.32 24.54 31.32 24.3 L 31.32 24.3 L 31.32 19.548 C 31.32 19.284 31.236 19.062 31.068 18.882 C 30.9 18.702 30.684 18.612 30.42 18.612 L 30.42 18.612 L 25.668 18.612 C 25.404 18.612 25.182 18.702 25.002 18.882 C 24.822 19.062 24.732 19.284 24.732 19.548 L 24.732 19.548 L 24.732 24.3 C 24.732 24.564 24.822 24.78 25.002 24.948 C 25.182 25.116 25.404 25.2 25.668 25.2 L 25.668 25.2 L 30.42 25.2 Z" stroke-linecap="round"/>
</g>
<path xml:space="preserve" font-family="Roboto" font-size="872" font-style="normal" font-weight="bold" style="stroke: none; stroke-width: 1; stroke-dasharray: none; stroke-linecap: butt; stroke-dashoffset: 0; stroke-linejoin: miter; stroke-miterlimit: 4; is-custom-font: none; font-file-url: none; fill: rgb(40,38,66); fill-rule: nonzero; opacity: 1; white-space: pre;" d="M154.98 273.93L111.98 146.20L-111.98 146.20L-154.56 273.93L-290.38 273.93L-59.61-346.01L58.76-346.01L290.81 273.93L154.98 273.93ZM-0.43-189.32L-77.49 42.73L77.49 42.73L-0.43-189.32Z"/></g>
<path xml:space="preserve" font-family="Roboto" font-size="872" font-style="normal" font-weight="bold" style="stroke: none; stroke-width: 1; stroke-dasharray: none; stroke-linecap: butt; stroke-dashoffset: 0; stroke-linejoin: miter; stroke-miterlimit: 4; is-custom-font: none; font-file-url: none; fill: rgb(40,38,66); fill-rule: nonzero; opacity: 1; white-space: pre;" d="M154.98 273.93L111.98 146.20L-111.98 146.20L-154.56 273.93L-290.38 273.93L-59.61-346.01L58.76-346.01L290.81 273.93L154.98 273.93ZM-0.43-189.32L-77.49 42.73L77.49 42.73L-0.43-189.32Z"/></g>
</svg>